<?xml version="1.0" encoding="UTF-8" standalone="no"?>
<svg
   xmlns:dc="http://purl.org/dc/elements/1.1/"
   xmlns:cc="http://creativecommons.org/ns#"
   xmlns:rdf="http://www.w3.org/1999/02/22-rdf-syntax-ns#"
   xmlns:svg="http://www.w3.org/2000/svg"
   xmlns="http://www.w3.org/2000/svg"
   xmlns:xlink="http://www.w3.org/1999/xlink"
   width="105.05247mm"
   height="116.63659mm"
   viewBox="0 0 105.05247 116.63659"
   version="1.1"
   id="svg8">
  <defs
     id="defs2">
    <linearGradient
       id="linearGradient1027">
      <stop
         style="stop-color:#1f9c50;stop-opacity:1;"
         offset="0"
         id="stop1023" />
      <stop
         style="stop-color:#1f4a9c;stop-opacity:1"
         offset="1"
         id="stop1025" />
    </linearGradient>
    <linearGradient
       xlink:href="#linearGradient1027"
       id="linearGradient1029"
       x1="454.44077"
       y1="41.407291"
       x2="502.55719"
       y2="110.19896"
       gradientUnits="userSpaceOnUse" />
  </defs>
  <metadata
     id="metadata5">
    <rdf:RDF>
      <cc:Work
         rdf:about="">
        <dc:format>image/svg+xml</dc:format>
        <dc:type
           rdf:resource="http://purl.org/dc/dcmitype/StillImage" />
        <dc:title></dc:title>
      </cc:Work>
    </rdf:RDF>
  </metadata>
  <g
     id="layer1"
     transform="translate(-417.52551,-18.785418)">
    <circle
       style="fill:url(#linearGradient1029);fill-opacity:1;stroke:#e1effc;stroke-width:3;stroke-miterlimit:4;stroke-dasharray:none;stroke-opacity:1"
       id="path833"
       cx="474.39792"
       cy="75.009377"
       r="46.680058" />
    <path
       style="fill:#ff7d27;fill-opacity:1;stroke-width:0.529167"
       id="path989"
       d="m 421.74583,21.166668 12.55091,3.866225 12.55092,3.866224 -9.62371,8.9363 -9.62371,8.936299 -2.92721,-12.802524 z"
       transform="matrix(1.5375604,0,0,1.4133299,-226.71385,-8.7488178)" />
    <path
       style="fill:#ff9955;fill-opacity:1;stroke-width:0.529167"
       id="path991"
       d="m 448.7333,18.785418 10.35386,8.309698 10.35385,8.309699 -12.37333,4.811853 -12.37334,4.811853 2.01948,-13.121551 z" />
    <path
       style="fill:#ff9955;fill-opacity:1;stroke-width:0.529167"
       id="path993"
       d="m 415.92499,54.504164 11.5483,-4.286164 11.5483,-4.286163 -2.06223,12.144202 -2.06222,12.144202 -9.48607,-7.858038 z"
       transform="rotate(19.510837,429.94791,56.885415)" />
    <path
       style="fill:#ff6d0c;fill-opacity:1;stroke-width:0.529167"
       id="path989-9"
       transform="matrix(1.0357742,-1.3181536,0.88317965,0.58116127,27.990998,664.12624)"
       d="m 421.74583,21.166668 12.55091,3.866225 12.55092,3.866224 -9.62371,8.9363 -9.62371,8.936299 -2.92721,-12.802524 z" />
    <path
       style="fill:#ff9955;fill-opacity:1;stroke-width:0.529167"
       id="path993-1"
       d="m -528.62076,-94.376787 11.5483,-4.286163 11.5483,-4.28616 -2.06222,12.144198 -2.06222,12.144202 -9.48608,-7.858038 z"
       transform="rotate(-117.62482,49.654975,-287.42113)" />
    <g
       aria-label="MISO"
       id="text1033"
       style="font-style:normal;font-variant:normal;font-weight:normal;font-stretch:normal;font-size:28.7745px;line-height:1.25;font-family:'Showcard Gothic';-inkscape-font-specification:'Showcard Gothic';text-align:center;text-anchor:middle;fill:#fff444;fill-opacity:1;stroke:none;stroke-width:0.719366">
      <path
         d="m 463.06656,64.275151 q -0.1967,2.95051 -0.57605,10.762337 -0.1967,4.805117 -0.29505,10.818538 h -5.08612 l -0.1405,-6.617573 -4.95967,7.137425 -5.35307,-7.081225 -0.1405,6.561373 h -5.05802 q -0.0983,-3.217461 -0.37935,-10.874738 -0.1967,-4.411715 -0.71655,-10.706137 h 8.05068 q 0.4215,1.025653 1.44715,3.315811 0.78681,1.629806 2.14966,3.849714 0.60415,-0.955404 2.21991,-3.948064 0.57605,-1.109954 1.47525,-3.217461 z"
         style="font-style:normal;font-variant:normal;font-weight:normal;font-stretch:normal;font-family:'Showcard Gothic';-inkscape-font-specification:'Showcard Gothic';text-align:center;text-anchor:middle;fill:#fff444;fill-opacity:1;stroke-width:0.719366"
         id="path1672" />
      <path
         d="m 473.9694,64.275151 -0.54795,11.47889 q -0.15455,3.709213 -0.36531,10.101985 h -7.88207 l -0.95541,-21.580875 z"
         style="font-style:normal;font-variant:normal;font-weight:normal;font-stretch:normal;font-family:'Showcard Gothic';-inkscape-font-specification:'Showcard Gothic';text-align:center;text-anchor:middle;fill:#fff444;fill-opacity:1;stroke-width:0.719366"
         id="path1674" />
      <path
         d="m 488.49715,73.112631 q -1.03971,-0.23885 -1.57361,-0.23885 -0.66035,0 -1.2083,0.449601 -0.66036,0.547952 -0.66036,1.419055 0,0.674402 1.20831,2.599259 1.2083,1.924857 1.2083,3.540612 0,2.346359 -1.78435,3.849714 -1.70006,1.447155 -4.20097,1.447155 -2.30421,0 -3.40011,-0.323151 -0.12645,-0.646303 -0.43555,-2.107508 -0.1967,-0.786802 -0.54795,-2.093457 1.5455,0.379351 2.0794,0.379351 2.09346,0 2.09346,-1.587655 0,-1.152104 -0.843,-2.065357 -1.37691,-1.208304 -2.75381,-2.430659 -2.66951,-2.360408 -2.66951,-5.605969 0,-3.386062 2.52901,-5.128268 2.20586,-1.517405 5.87292,-1.517405 2.07941,0 4.66461,0.604152 z"
         style="font-style:normal;font-variant:normal;font-weight:normal;font-stretch:normal;font-family:'Showcard Gothic';-inkscape-font-specification:'Showcard Gothic';text-align:center;text-anchor:middle;fill:#fff444;fill-opacity:1;stroke-width:0.719366"
         id="path1676" />
      <path
         d="m 508.43417,74.601937 q 0,4.959667 -2.55711,8.387879 -2.68356,3.582762 -6.87048,3.582762 -4.31336,0 -6.98287,-3.610862 -2.51496,-3.400112 -2.51496,-8.359779 0,-5.296869 2.73976,-8.317629 2.58521,-2.83811 6.75807,-2.83811 4.10262,0 6.68783,2.85216 2.73976,3.03481 2.73976,8.303579 z m -6.75808,2.472808 q 0,-3.905913 -2.64141,-3.905913 -2.57116,0 -2.57116,3.934013 0,1.573606 0.67441,2.936461 0.7587,1.531455 1.86865,1.531455 1.08186,0 1.91081,-1.559556 0.7587,-1.419055 0.7587,-2.93646 z"
         style="font-style:normal;font-variant:normal;font-weight:normal;font-stretch:normal;font-family:'Showcard Gothic';-inkscape-font-specification:'Showcard Gothic';text-align:center;text-anchor:middle;fill:#fff444;fill-opacity:1;stroke-width:0.719366"
         id="path1678" />
    </g>
  </g>
</svg>
