<?xml version="1.0" encoding="UTF-8" standalone="no"?>
<svg
   xmlns:dc="http://purl.org/dc/elements/1.1/"
   xmlns:cc="http://creativecommons.org/ns#"
   xmlns:rdf="http://www.w3.org/1999/02/22-rdf-syntax-ns#"
   xmlns:svg="http://www.w3.org/2000/svg"
   xmlns="http://www.w3.org/2000/svg"
   xmlns:xlink="http://www.w3.org/1999/xlink"
   xmlns:sodipodi="http://sodipodi.sourceforge.net/DTD/sodipodi-0.dtd"
   xmlns:inkscape="http://www.inkscape.org/namespaces/inkscape"
   width="294.74582mm"
   height="190.76459mm"
   viewBox="0 0 294.74582 190.76459"
   version="1.1"
   id="svg8"
   inkscape:version="1.0.2-2 (e86c870879, 2021-01-15)"
   sodipodi:docname="logo.svg">
  <defs
     id="defs2">
    <linearGradient
       inkscape:collect="always"
       id="linearGradient1027">
      <stop
         style="stop-color:#1f9c50;stop-opacity:1;"
         offset="0"
         id="stop1023" />
      <stop
         style="stop-color:#1f4a9c;stop-opacity:1"
         offset="1"
         id="stop1025" />
    </linearGradient>
    <inkscape:path-effect
       effect="lattice2"
       gridpoint0="397.93335,0.26458321"
       gridpoint1="562.50416,-3.1750001"
       gridpoint2="377.56043,157.95624"
       gridpoint3="582.08333,157.95624"
       gridpoint4="428.69116,-14.022917"
       gridpoint5="530.95261,-14.022917"
       gridpoint6="428.69116,157.95624"
       gridpoint7="530.95261,157.95624"
       gridpoint8x9="479.82188,-14.022917"
       gridpoint10x11="479.82188,157.95624"
       gridpoint12="377.56043,28.971873"
       gridpoint13="582.08333,28.971873"
       gridpoint14="377.56043,114.96145"
       gridpoint15="582.08333,114.96145"
       gridpoint16="383.71199,-16.007294"
       gridpoint17="542.06511,27.384373"
       gridpoint18="422.87032,134.8052"
       gridpoint19="554.50052,122.36979"
       gridpoint20x21="494.10938,14.948956"
       gridpoint22x23="481.93855,134.01145"
       gridpoint24x26="377.56043,71.966663"
       gridpoint25x27="582.08333,71.966663"
       gridpoint28x30="428.69116,71.966663"
       gridpoint29x31="552.91302,73.024996"
       gridpoint32x33x34x35="479.82188,71.966663"
       id="path-effect987"
       is_visible="true"
       lpeversion="1"
       horizontal_mirror="false"
       vertical_mirror="false"
       perimetral="false"
       live_update="true" />
    <filter
       inkscape:collect="always"
       style="color-interpolation-filters:sRGB"
       id="filter859"
       x="-0.12486993"
       width="1.2497399"
       y="-0.12486993"
       height="1.2497399">
      <feGaussianBlur
         inkscape:collect="always"
         stdDeviation="6.7846919"
         id="feGaussianBlur861" />
    </filter>
    <linearGradient
       inkscape:collect="always"
       xlink:href="#linearGradient1027"
       id="linearGradient1029"
       x1="454.44077"
       y1="41.407291"
       x2="502.55719"
       y2="110.19896"
       gradientUnits="userSpaceOnUse" />
  </defs>
  <sodipodi:namedview
     id="base"
     pagecolor="#ffffff"
     bordercolor="#666666"
     borderopacity="1.0"
     inkscape:pageopacity="0.0"
     inkscape:pageshadow="2"
     inkscape:zoom="0.33132883"
     inkscape:cx="374.85602"
     inkscape:cy="284.59153"
     inkscape:document-units="mm"
     inkscape:current-layer="layer1"
     inkscape:document-rotation="0"
     showgrid="false"
     inkscape:window-width="1920"
     inkscape:window-height="1017"
     inkscape:window-x="-8"
     inkscape:window-y="-8"
     inkscape:window-maximized="1"
     fit-margin-top="0"
     fit-margin-left="0"
     fit-margin-right="0"
     fit-margin-bottom="0" />
  <metadata
     id="metadata5">
    <rdf:RDF>
      <cc:Work
         rdf:about="">
        <dc:format>image/svg+xml</dc:format>
        <dc:type
           rdf:resource="http://purl.org/dc/dcmitype/StillImage" />
        <dc:title></dc:title>
      </cc:Work>
    </rdf:RDF>
  </metadata>
  <g
     inkscape:label="Layer 1"
     inkscape:groupmode="layer"
     id="layer1"
     transform="translate(-326.23123,19.049999)">
    <circle
       style="fill:#fffde6;fill-opacity:1;stroke-width:0.405695;filter:url(#filter859)"
       id="circle837"
       cx="474.39792"
       cy="75.009377"
       r="65.20089" />
    <circle
       style="fill:url(#linearGradient1029);fill-opacity:1;stroke:#e1effc;stroke-width:3;stroke-miterlimit:4;stroke-dasharray:none;stroke-opacity:1"
       id="path833"
       cx="474.39792"
       cy="75.009377"
       r="46.680058" />
    <g
       id="g985"
       inkscape:path-effect="#path-effect987"
       transform="matrix(-0.69533409,-0.57508594,0.65840533,-0.65511656,755.72147,404.79841)">
      <ellipse
         style="fill:#ffffff;fill-opacity:1;stroke-width:0.529167"
         id="path863"
         cx="389.20209"
         cy="45.640625"
         rx="5.2916665"
         ry="16.536459"
         d="m 399.35859,48.950383 c -0.40439,4.341333 -1.0853,8.71717 -1.9734,12.115016 -0.88699,3.393634 -1.88621,5.43598 -2.75905,5.780406 -0.87018,0.343377 -1.49702,-1.041609 -1.7255,-3.726696 -0.22891,-2.690196 -0.0489,-6.497674 0.43904,-10.618994 0.48643,-4.108769 1.24883,-8.27597 2.1278,-11.513186 0.88392,-3.255459 1.82774,-5.356513 2.61559,-5.881259 0.78828,-0.525032 1.33318,0.575329 1.55559,3.120577 0.21966,2.513701 0.11987,6.430695 -0.28007,10.724136 z" />
      <ellipse
         style="fill:#ffffff;fill-opacity:1;stroke-width:0.362948"
         id="path865"
         cx="386.0271"
         cy="70.379166"
         rx="8.4666662"
         ry="18.520834"
         d="m 397.76056,74.14422 c -0.21159,5.169748 -1.03502,10.123537 -2.38289,13.84367 -1.33826,3.693621 -3.03296,5.708749 -4.56514,5.857412 -1.53653,0.149083 -2.69334,-1.567843 -3.17848,-4.569642 -0.48989,-3.031225 -0.28128,-7.114663 0.3009,-11.62086 0.55932,-4.329252 1.49322,-9.251893 2.46867,-12.863346 1.0181,-3.76933 2.15187,-6.386484 3.31634,-7.119134 1.16013,-0.729919 2.2602,0.488698 3.0511,3.577757 0.78868,3.080388 1.19882,7.779855 0.9895,12.894143 z" />
      <ellipse
         style="fill:#ffffff;fill-opacity:1;stroke-width:0.529167"
         id="path869"
         cx="401.50522"
         cy="116.81354"
         rx="7.2760415"
         ry="4.1010418"
         d="m 410.43046,124.00702 c -0.006,1.10642 -0.80505,2.02494 -2.19861,2.568 -1.39144,0.54222 -3.25649,0.66431 -5.14763,0.36241 -1.89351,-0.30227 -3.65891,-1.00316 -4.92155,-1.94649 -1.26352,-0.94398 -1.93201,-2.06036 -1.90198,-3.12421 0.0299,-1.06075 0.75397,-1.99806 2.02686,-2.58877 1.2767,-0.59247 3.01608,-0.79412 4.88807,-0.5306 1.86961,0.26319 3.71449,0.97256 5.09305,1.96721 1.38114,0.99652 2.16817,2.1871 2.16179,3.29245 z" />
      <ellipse
         style="fill:#ffffff;fill-opacity:1;stroke-width:0.529167"
         id="path871"
         cx="392.11249"
         cy="96.705208"
         rx="5.0270834"
         ry="3.5718749"
         d="m 399.25936,101.70202 c -0.0127,0.99794 -0.49436,1.91561 -1.33034,2.56013 -0.83358,0.64268 -1.94273,0.95462 -3.04718,0.89469 -1.10532,-0.06 -2.11209,-0.48424 -2.80717,-1.1662 -0.69631,-0.68317 -1.03481,-1.57705 -0.98181,-2.50803 0.0528,-0.92687 0.49189,-1.836997 1.22637,-2.513319 0.73758,-0.679169 1.72622,-1.078926 2.79146,-1.080771 1.06379,-0.0018 2.11619,0.396394 2.91082,1.119267 0.79373,0.72206 1.25052,1.698403 1.23785,2.694233 z" />
      <ellipse
         style="fill:#ffffff;fill-opacity:1;stroke-width:0.529167"
         id="path873"
         cx="418.83542"
         cy="11.773958"
         rx="13.49375"
         ry="12.567708"
         d="m 435.59829,9.9989571 c -0.41367,2.2744349 -2.03359,4.9474249 -4.71757,7.3181539 -2.68712,2.373502 -6.11102,4.144533 -9.44871,4.895768 -3.32374,0.748094 -6.15129,0.396662 -7.85176,-0.928723 -1.69697,-1.32265 -2.1807,-3.543954 -1.43913,-6.067673 0.74735,-2.543371 2.64514,-5.090465 5.32882,-7.0521756 2.68422,-1.9621033 5.86904,-3.1426565 8.84887,-3.6277474 2.93582,-0.4779246 5.54301,-0.2686245 7.20411,0.6250771 1.68414,0.906098 2.48937,2.5609995 2.07537,4.83732 z" />
      <ellipse
         style="fill:#ffffff;fill-opacity:1;stroke-width:0.529167"
         id="path875"
         cx="456.93542"
         cy="-2.9104166"
         rx="12.964583"
         ry="0.52916664"
         d="m 471.57339,0.74219744 c 0.002,0.0473204 -1.21593,0.0746548 -3.39521,0.10441235 -2.3907,0.0326445 -4.92988,0.0627984 -8.22034,0.14149165 -3.30011,0.0789241 -5.7932,0.16949086 -8.15497,0.25431836 -2.14157,0.076918 -3.31778,0.111213 -3.29147,0.063579 0.0263,-0.047634 1.25135,-0.1720719 3.4113,-0.31157321 2.21732,-0.143207 5.0231,-0.27352533 8.13044,-0.34832968 3.09878,-0.0745982 5.92707,-0.0802 8.13803,-0.0465077 2.16139,0.0329369 3.38045,0.0952889 3.38222,0.14260924 z" />
      <ellipse
         style="fill:#ffffff;fill-opacity:1;stroke-width:0.529167"
         id="path877"
         cx="474.7948"
         cy="5.2916665"
         rx="2.2489583"
         ry="2.9104166"
         d="m 478.83955,4.6392508 c 0.23758,0.9009239 -0.50613,1.6637957 -1.72598,1.6022697 -1.21952,-0.061509 -2.37503,-0.915236 -2.55798,-1.7937447 -0.18284,-0.8780015 0.65378,-1.4647169 1.79974,-1.4210373 1.14566,0.043668 2.24645,0.7108911 2.48422,1.6125123 z" />
      <ellipse
         style="fill:#ffffff;fill-opacity:1;stroke-width:0.529167"
         id="path879"
         cx="456.27396"
         cy="0.52916664"
         rx="4.8947916"
         ry="3.96875"
         d="m 463.65082,2.0161891 c -0.0197,0.4345941 -0.49613,0.9023414 -1.36272,1.2718418 -0.86996,0.3709451 -2.04441,0.6042204 -3.2825,0.6337973 -1.23566,0.029519 -2.39796,-0.147688 -3.21965,-0.4747734 -0.82063,-0.3266633 -1.21537,-0.7675006 -1.11543,-1.2023212 0.10002,-0.4351649 0.68383,-0.8268695 1.58951,-1.1106507 0.89905,-0.281701 2.06483,-0.44377589 3.20658,-0.47333502 1.14415,-0.0296216 2.22036,0.0743233 2.99265,0.3128882 0.77558,0.23958302 1.21135,0.60560912 1.19156,1.04255302 z" />
      <ellipse
         style="fill:#ffffff;fill-opacity:1;stroke-width:0.529167"
         id="path881"
         cx="445.16144"
         cy="14.022917"
         rx="9.1281252"
         ry="4.7624998"
         d="m 457.18279,9.8407088 c 0.0522,0.9090522 -0.86481,1.8497172 -2.6087,2.6144442 -1.74214,0.76396 -4.15174,1.282014 -6.66268,1.448382 -2.50748,0.16614 -4.88268,-0.03358 -6.56168,-0.553471 -1.68342,-0.521258 -2.53683,-1.321786 -2.43003,-2.230628 0.10658,-0.906963 1.16034,-1.8438928 2.88661,-2.5936609 1.72871,-0.7508259 3.99932,-1.2584036 6.34159,-1.4239173 2.34039,-0.1653799 4.59136,0.022132 6.28234,0.5300737 1.69353,0.5087088 2.70047,1.3016453 2.75255,2.2087773 z" />
      <ellipse
         style="fill:#ffffff;fill-opacity:1;stroke-width:0.529167"
         id="path883"
         cx="473.60416"
         cy="-10.186459"
         rx="15.08125"
         ry="3.8364582"
         d="m 487.46711,-0.96869502 c 0.0601,0.22186738 -1.18429,0.45546189 -3.54687,0.59253738 -2.38935,0.13862862 -5.62447,0.17108624 -9.11616,0.13730844 -3.39573,-0.0328495 -6.839,-0.12640854 -9.1234,-0.23679164 -2.35501,-0.11379532 -3.54325,-0.24676522 -3.36717,-0.37154175 0.1746,-0.1237245 1.68392,-0.21925061 4.11215,-0.29500391 1.89663,-0.059169 6.10931,-0.1524284 8.78996,-0.2084548 3.20934,-0.067076 6.27196,-0.1216693 8.55625,-0.066959 2.28948,0.054835 3.63514,0.2270375 3.69524,0.44890488 z" />
      <ellipse
         style="fill:#ffffff;fill-opacity:1;stroke-width:0.529167"
         id="path885"
         cx="510.24896"
         cy="-1.190625"
         rx="2.2489583"
         ry="5.1593747"
         d="m 509.35143,3.8686983 c 0.39987,0.7958262 0.60885,1.593919 0.5524,2.1691974 -0.0567,0.5777315 -0.375,0.8722222 -0.90076,0.800442 -0.52539,-0.071728 -1.2041,-0.5016306 -1.87489,-1.1564277 -0.66841,-0.6524725 -1.26355,-1.4616865 -1.64014,-2.2189313 -0.37659,-0.7572448 -0.50429,-1.4023644 -0.38046,-1.8448932 0.12276,-0.438717 0.48618,-0.65738994 0.98298,-0.62588471 0.49893,0.03164 1.10376,0.31350231 1.70276,0.83198751 0.60037,0.5196781 1.15611,1.2444434 1.55811,2.04451 z" />
      <ellipse
         style="fill:#ffffff;fill-opacity:1;stroke-width:0.529167"
         id="path887"
         cx="535.91351"
         cy="19.84375"
         rx="7.8052082"
         ry="0.26458332"
         d="m 542.71321,25.245569 c 0.0268,0.06588 -0.5488,-0.002 -1.62296,-0.19745 -1.08462,-0.197398 -2.56417,-0.504061 -4.19484,-0.867293 -1.60435,-0.357369 -3.24325,-0.744739 -4.4447,-1.049888 -1.21742,-0.309207 -1.92969,-0.519571 -1.95844,-0.584963 -0.0286,-0.06498 0.62884,0.02065 1.80604,0.236799 1.18486,0.217559 2.7549,0.541267 4.38461,0.902964 1.6161,0.358675 3.1529,0.723982 4.26136,1.0107 1.11446,0.288267 1.74198,0.482999 1.76893,0.549131 z" />
      <ellipse
         style="fill:#ffffff;fill-opacity:1;stroke-width:0.529167"
         id="path889"
         cx="531.54791"
         cy="0.52916664"
         rx="8.4666662"
         ry="1.5875"
         d="m 532.68434,7.8965001 c 0.14228,0.3311235 -0.42884,0.555214 -1.59589,0.6059355 -1.17512,0.051072 -2.83806,-0.07674 -4.68038,-0.3482805 -1.82581,-0.269109 -3.68405,-0.6585149 -5.10149,-1.0554119 -1.42613,-0.3993302 -2.31236,-0.778759 -2.45289,-1.0640443 -0.1406,-0.2854221 0.47312,-0.4592925 1.69339,-0.496892 1.21319,-0.037382 2.94724,0.06384 4.77361,0.2884825 1.83835,0.2261165 3.62508,0.5592198 5.00374,0.9465153 1.37452,0.3861345 2.21781,0.7930006 2.35991,1.1236954 z" />
      <ellipse
         style="fill:#ffffff;fill-opacity:1;stroke-width:0.529167"
         id="path891"
         cx="523.47809"
         cy="13.626041"
         rx="7.2760415"
         ry="6.4822917"
         d="m 530.14842,17.408948 c 0.68874,1.499214 0.73638,2.858521 0.1039,3.724634 -0.6349,0.869426 -1.90069,1.170845 -3.55875,0.821071 -1.65587,-0.349314 -3.55151,-1.317456 -5.24685,-2.651555 -1.6935,-1.332653 -3.02965,-2.905505 -3.69575,-4.337691 -0.66744,-1.435071 -0.61461,-2.619803 0.1105,-3.35982 0.72078,-0.73559 2.06372,-0.987552 3.68839,-0.706915 1.63276,0.282035 3.43079,1.080849 5.03227,2.286117 1.60102,1.204929 2.87664,2.722968 3.56629,4.224159 z" />
      <ellipse
         style="fill:#ffffff;fill-opacity:1;stroke-width:0.529167"
         id="path893"
         cx="556.81561"
         cy="50.667709"
         rx="3.0427084"
         ry="8.8635416"
         d="m 562.32497,57.53572 c 0.53096,2.341855 0.84871,4.570715 0.91343,6.226183 0.0645,1.650197 -0.12779,2.580917 -0.5157,2.564414 -0.39192,-0.01667 -0.94661,-0.981267 -1.58469,-2.699442 -0.62916,-1.694146 -1.31583,-4.061689 -1.88619,-6.433042 -0.57425,-2.387512 -1.00213,-4.659682 -1.142,-6.275672 -0.1405,-1.623415 0.0224,-2.481792 0.45684,-2.411856 0.43385,0.06985 1.09986,1.061457 1.81313,2.749253 0.71809,1.699213 1.41279,3.931954 1.94518,6.280162 z" />
      <ellipse
         style="fill:#ffffff;fill-opacity:1;stroke-width:0.529167"
         id="path895"
         cx="573.48438"
         cy="77.522919"
         rx="7.0114584"
         ry="8.9958334"
         d="m 572.69092,82.739305 c 0.2639,2.22287 0.40562,4.467969 0.30942,6.164493 -0.0971,1.712169 -0.44113,2.785292 -0.96202,2.972934 -0.5209,0.187642 -1.16074,-0.530288 -1.7193,-2.026975 -0.56183,-1.505455 -0.9882,-3.641464 -1.20384,-5.967691 -0.21482,-2.317233 -0.19889,-4.587095 0.0206,-6.289452 0.21962,-1.703753 0.62397,-2.700146 1.09307,-2.811638 0.47297,-0.112414 0.9592,0.668527 1.39457,2.151791 0.42826,1.459052 0.80501,3.595175 1.06754,5.806538 z" />
      <ellipse
         style="fill:#ffffff;fill-opacity:1;stroke-width:0.529167"
         id="path897"
         cx="575.20416"
         cy="99.21875"
         rx="6.8791666"
         ry="7.1437497"
         d="m 575.39629,102.92373 c 0.21634,1.78045 0.24439,3.5427 -0.0367,4.93743 -0.28029,1.3905 -0.85748,2.29024 -1.57025,2.51237 -0.71537,0.22293 -1.48306,-0.25423 -2.04753,-1.3428 -0.57063,-1.10046 -0.87671,-2.69917 -0.89748,-4.50989 -0.0206,-1.79416 0.24086,-3.62581 0.64841,-5.04504 0.40889,-1.423927 0.92643,-2.331481 1.44485,-2.53013 0.51905,-0.198889 1.00307,0.325886 1.43877,1.448429 0.42385,1.091996 0.80809,2.785821 1.01998,4.529631 z" />
      <ellipse
         style="fill:#ffffff;fill-opacity:1;stroke-width:0.529167"
         id="path899"
         cx="543.45416"
         cy="128.32292"
         rx="6.8791666"
         ry="7.9375"
         d="m 556.68394,134.4164 c -0.46599,1.8613 -1.49855,3.70647 -2.95394,5.16784 -1.45137,1.45732 -3.18669,2.39273 -4.79843,2.663 -1.6064,0.26937 -2.93286,-0.14097 -3.6363,-1.15633 -0.70498,-1.0176 -0.72768,-2.56232 -0.10013,-4.3744 0.62277,-1.79826 1.84412,-3.7277 3.32239,-5.28703 1.48582,-1.56729 3.11467,-2.64091 4.55895,-2.95735 1.44493,-0.31659 2.59826,0.14737 3.26776,1.27465 0.66504,1.11978 0.80207,2.82275 0.3397,4.66962 z" />
      <ellipse
         style="fill:#ffffff;fill-opacity:1;stroke-width:0.529167"
         id="path901"
         cx="559.72601"
         cy="133.21771"
         rx="2.778125"
         ry="1.984375"
         d="m 565.30426,136.86501 c -0.13697,0.98067 -1.21063,1.91996 -2.45107,2.13237 -1.23963,0.21228 -2.08219,-0.38727 -1.89103,-1.33863 0.19122,-0.95173 1.32983,-1.93456 2.48879,-2.15964 1.15812,-0.22492 1.99025,0.38547 1.85331,1.3659 z" />
      <ellipse
         style="fill:#ffffff;fill-opacity:1;stroke-width:0.529167"
         id="path903"
         cx="566.73749"
         cy="104.90729"
         rx="4.4979167"
         ry="8.3343744"
         d="m 572.13074,109.51184 c 0.0345,2.0892 -0.15355,4.11756 -0.58492,5.70817 -0.42853,1.58013 -1.06146,2.56313 -1.70836,2.73977 -0.6507,0.17768 -1.24045,-0.46913 -1.60466,-1.80762 -0.36663,-1.34736 -0.47533,-3.26407 -0.35942,-5.37809 0.11453,-2.08874 0.44082,-4.22365 0.86177,-5.81905 0.42562,-1.6131 0.92458,-2.59986 1.42102,-2.74977 0.49796,-0.15037 0.96174,0.54475 1.32885,1.91748 0.36294,1.35717 0.61162,3.32677 0.64572,5.38911 z" />
      <circle
         style="fill:#ffffff;fill-opacity:1;stroke-width:0.529167"
         id="path905"
         cx="573.35205"
         cy="88.635414"
         r="3.175"
         d="m 573.01503,93.564955 c 0.15131,1.651383 -0.10484,3.140431 -0.64276,3.334187 -0.53793,0.193757 -1.10397,-0.9969 -1.20447,-2.668676 -0.10051,-1.671776 0.26339,-3.170235 0.75053,-3.343556 0.48713,-0.17332 0.94539,1.026661 1.0967,2.678045 z" />
      <ellipse
         style="fill:#ffffff;fill-opacity:1;stroke-width:0.529167"
         id="path907"
         cx="574.80731"
         cy="85.989586"
         rx="6.2177081"
         ry="15.345833"
         d="m 573.71109,90.631065 c 0.44619,3.826186 0.74987,7.527346 0.70785,10.360075 -0.0419,2.82237 -0.44517,4.51694 -1.026,4.71455 -0.59179,0.20134 -1.25062,-1.12349 -1.77791,-3.70265 -0.52977,-2.591312 -0.89191,-6.223336 -1.13893,-10.13867 -0.24041,-3.81063 -0.36695,-7.817165 -0.32485,-10.564689 0.0436,-2.846553 0.26538,-4.477855 0.65405,-4.591661 0.38817,-0.11366 0.88174,1.301905 1.40504,3.904321 0.5048,2.510451 1.06698,6.299022 1.50075,10.018724 z" />
      <ellipse
         style="fill:#ffffff;fill-opacity:1;stroke-width:0.529167"
         id="path909"
         cx="567.39893"
         cy="56.091667"
         rx="3.0427084"
         ry="8.2020836"
         d="m 567.57884,62.996713 c 0.35945,2.08731 0.58298,4.108087 0.63355,5.604502 0.0507,1.499052 -0.0753,2.363891 -0.34799,2.388208 -0.27437,0.02447 -0.6722,-0.795136 -1.12936,-2.29269 -0.45185,-1.480139 -0.94194,-3.561871 -1.34461,-5.680598 -0.40545,-2.133379 -0.69802,-4.176303 -0.78195,-5.661638 -0.0841,-1.4877 0.0513,-2.30356 0.36966,-2.285673 0.31904,0.01793 0.78772,0.866504 1.27808,2.35016 0.49326,1.492445 0.96116,3.478772 1.32262,5.577729 z" />
      <ellipse
         style="fill:#ffffff;fill-opacity:1;stroke-width:0.529167"
         id="path911"
         cx="558.27081"
         cy="47.625"
         rx="9.7895832"
         ry="6.3499999"
         d="m 565.18337,54.82664 c 0.33581,1.610853 0.2658,3.192093 -0.22718,4.307444 -0.49863,1.128128 -1.40964,1.738963 -2.65437,1.638695 -1.23817,-0.09974 -2.70626,-0.905997 -4.03618,-2.261593 -1.33045,-1.356131 -2.38024,-3.121364 -2.84641,-4.868152 -0.46724,-1.750818 -0.29885,-3.291101 0.44129,-4.316862 0.73705,-1.021488 1.97052,-1.436241 3.33522,-1.222297 1.36878,0.214583 2.73979,1.034673 3.82516,2.273413 1.08788,1.241595 1.8232,2.821887 2.16247,4.449352 z" />
      <ellipse
         style="fill:#ffffff;fill-opacity:1;stroke-width:0.529167"
         id="path913"
         cx="568.45728"
         cy="27.648958"
         rx="3.3072915"
         ry="16.007292"
         d="m 562.5533,35.812942 c 0.90081,4.005082 1.58918,7.923963 1.94761,10.754692 0.36153,2.855132 0.37814,4.461869 0.022,4.436823 -0.35695,-0.0251 -1.06283,-1.683695 -2.05914,-4.623119 -0.94323,-2.782803 -2.255,-7.052825 -3.33978,-10.964832 -1.13968,-4.109961 -2.0384,-7.853679 -2.45019,-10.669475 -0.40536,-2.771775 -0.27645,-4.286598 0.29711,-4.229519 0.56847,0.05657 1.50858,1.681057 2.55667,4.541288 1.05816,2.887741 2.11285,6.695453 3.02572,10.754142 z" />
      <ellipse
         style="fill:#ffffff;fill-opacity:1;stroke-width:0.529167"
         id="path915"
         cx="535.11981"
         cy="3.175"
         rx="14.948958"
         ry="2.6458333"
         d="m 541.41551,11.151845 c 0.22923,0.602034 -0.74225,1.020127 -2.72248,1.100897 -2.0075,0.08188 -4.82491,-0.186273 -8.04029,-0.737254 -3.15805,-0.541157 -6.4721,-1.317447 -8.98026,-2.0647302 -2.53987,-0.7567302 -4.1242,-1.4420004 -4.36781,-1.9327478 -0.24357,-0.490642 0.86601,-0.7598207 3.03869,-0.7827019 2.15603,-0.022706 5.22673,0.2017807 8.41436,0.6333846 3.21205,0.4349092 6.30426,1.0471992 8.66144,1.7484272 2.35234,0.6997874 3.76697,1.4323031 3.99635,2.0347251 z" />
      <ellipse
         style="fill:#ffffff;fill-opacity:1;stroke-width:0.529167"
         id="path917"
         cx="554.03748"
         cy="22.621874"
         rx="6.614583"
         ry="12.832292"
         d="m 555.09619,30.195445 c 1.0206,3.224869 1.58389,6.339395 1.59613,8.538075 0.0123,2.215297 -0.52676,3.381182 -1.56815,3.180466 -1.04185,-0.200805 -2.5075,-1.756741 -4.14621,-4.3188 -1.61663,-2.527553 -3.31302,-5.905112 -4.55757,-9.129694 -1.26343,-3.273515 -1.97778,-6.165181 -1.94359,-8.202258 0.0339,-2.017541 0.81008,-3.022319 2.07743,-2.814018 1.27063,0.20884 2.8958,1.616246 4.49132,3.988698 1.6033,2.384019 3.01934,5.498888 4.05064,8.757531 z" />
      <ellipse
         style="fill:#ffffff;fill-opacity:1;stroke-width:0.529167"
         id="path919"
         cx="550.99481"
         cy="28.839582"
         rx="3.5718749"
         ry="0.52916664"
         d="m 553.32477,35.477427 c 0.0959,0.284814 -0.81146,0.318872 -2.08539,0.0498 -1.27446,-0.269189 -2.44717,-0.741832 -2.55188,-1.029015 -0.10499,-0.287925 0.90098,-0.279161 2.18749,-0.0066 1.28703,0.272694 2.35418,0.701748 2.44978,0.985795 z" />
      <ellipse
         style="fill:#ffffff;fill-opacity:1;stroke-width:0.529167"
         id="path921"
         cx="522.02289"
         cy="137.58333"
         rx="8.7312498"
         ry="9.260417"
         d="m 536.99005,145.09969 c -0.81811,1.86518 -2.44619,3.63602 -4.60229,4.96495 -2.1514,1.32604 -4.63277,2.09326 -6.90594,2.2858 -2.25601,0.19109 -4.1412,-0.1951 -5.13097,-1.08618 -1.00247,-0.90252 -1.06922,-2.2904 -0.17938,-4.01422 0.88066,-1.70602 2.65332,-3.62677 4.86113,-5.2174 2.22236,-1.60112 4.68858,-2.72573 6.8907,-3.05723 2.19987,-0.33116 3.92841,0.16167 4.86952,1.34203 0.9355,1.17333 1.00869,2.93221 0.19723,4.78225 z" />
      <ellipse
         style="fill:#ffffff;fill-opacity:1;stroke-width:0.529167"
         id="path923"
         cx="502.31146"
         cy="144.06563"
         rx="1.7197917"
         ry="0.13229166"
         d="m 508.57903,152.15769 c -0.0258,0.0409 -0.82268,0.12609 -1.78289,0.18689 -0.96021,0.0608 -1.72028,0.0747 -1.6948,0.0346 0.0255,-0.0401 0.82712,-0.11956 1.78761,-0.18114 0.96049,-0.0616 1.71584,-0.0813 1.69008,-0.0404 z" />
      <circle
         style="fill:#ffffff;fill-opacity:1;stroke-width:0.529167"
         id="path925"
         cx="489.08228"
         cy="135.06979"
         r="0.92604166"
         d="m 497.26259,147.33617 c -0.16783,0.36238 -0.73994,0.66689 -1.27722,0.68879 -0.53724,0.0219 -0.84018,-0.24681 -0.67511,-0.60869 0.16508,-0.36193 0.73736,-0.6802 1.27783,-0.70247 0.54101,-0.0223 0.84231,0.26002 0.6745,0.62237 z" />
      <ellipse
         style="fill:#ffffff;fill-opacity:1;stroke-width:0.529167"
         id="path927"
         cx="479.42499"
         cy="141.55208"
         rx="1.8520833"
         ry="2.6458333"
         d="m 486.03282,151.76611 c -0.44581,0.83585 -1.66869,1.44778 -2.72832,1.4594 -1.05941,0.0116 -1.58194,-0.58051 -1.15526,-1.4154 0.42683,-0.83518 1.64666,-1.59238 2.73286,-1.60459 1.08601,-0.0122 1.59631,0.72513 1.15072,1.56059 z" />
      <ellipse
         style="fill:#ffffff;fill-opacity:1;stroke-width:0.529167"
         id="path929"
         cx="500.59167"
         cy="150.28333"
         rx="11.377083"
         ry="7.1437497"
         d="m 514.37576,154.87206 c -0.64317,0.91429 -2.40261,1.70773 -4.95506,2.22473 -2.54571,0.51564 -5.65601,0.71655 -8.67557,0.72598 -2.95076,0.009 -5.76329,-0.1628 -7.44207,-0.48866 -1.74008,-0.33776 -2.41558,-0.85806 -1.82001,-1.58636 0.5913,-0.72308 2.39887,-1.5854 5.02635,-2.34729 2.63642,-0.76447 5.84439,-1.3458 8.91558,-1.53771 3.07891,-0.19239 5.69308,0.0276 7.36718,0.61995 1.65841,0.58675 2.21917,1.48588 1.5836,2.38936 z" />
      <ellipse
         style="fill:#ffffff;fill-opacity:1;stroke-width:0.529167"
         id="path931"
         cx="446.48438"
         cy="152.39999"
         rx="0.39687499"
         ry="1.5875"
         d="m 447.81268,156.22066 c -0.14789,0.33351 -0.44876,0.57042 -0.66994,0.56552 -0.22119,-0.005 -0.28451,-0.25137 -0.1385,-0.58987 0.14599,-0.33842 0.44499,-0.63459 0.67034,-0.62613 0.22536,0.008 0.28602,0.3169 0.1381,0.65048 z" />
      <ellipse
         style="fill:#ffffff;fill-opacity:1;stroke-width:0.529167"
         id="path933"
         cx="450.85001"
         cy="144.3302"
         rx="0.52916664"
         ry="0.66145831"
         d="m 453.8961,152.65644 c -0.0675,0.20094 -0.37123,0.34671 -0.67712,0.33079 -0.3059,-0.0159 -0.50112,-0.18815 -0.43512,-0.39084 0.066,-0.20269 0.36839,-0.35715 0.67678,-0.33992 0.30839,0.0172 0.50295,0.19901 0.43546,0.39997 z" />
      <ellipse
         style="fill:#ffffff;fill-opacity:1;stroke-width:0.529167"
         id="path935"
         cx="418.17395"
         cy="131.7625"
         rx="1.984375"
         ry="5.8208332"
         d="m 422.04862,140.13417 c -0.0717,1.34752 -0.36947,2.55105 -0.81865,3.39188 -0.44748,0.83767 -1.01247,1.25458 -1.55909,1.1809 -0.54826,-0.0739 -1.0415,-0.6344 -1.37753,-1.59167 -0.33597,-0.95712 -0.49163,-2.24686 -0.43308,-3.60493 0.0584,-1.3552 0.32681,-2.67125 0.75438,-3.6183 0.42868,-0.9495 0.98067,-1.44613 1.54388,-1.35901 0.56224,0.087 1.08326,0.74971 1.44177,1.81819 0.35777,1.06624 0.51988,2.4383 0.44832,3.78294 z" />
      <ellipse
         style="fill:#ffffff;fill-opacity:1;stroke-width:0.529167"
         id="path937"
         cx="424.52396"
         cy="133.61458"
         rx="6.2177081"
         ry="5.2916665"
         d="m 433.27222,143.24691 c -0.11567,1.15172 -0.93953,2.11605 -2.26218,2.72779 -1.31728,0.60925 -3.04421,0.82915 -4.77065,0.61883 -1.73327,-0.21115 -3.35061,-0.84102 -4.51441,-1.79452 -1.1627,-0.95259 -1.78275,-2.15741 -1.71832,-3.35481 0.0643,-1.19534 0.8086,-2.28096 2.09293,-2.98303 1.28712,-0.70359 3.00451,-0.96057 4.79455,-0.70266 1.78766,0.25758 3.47916,1.00554 4.68385,2.05079 1.20496,1.04548 1.80969,2.28789 1.69423,3.43761 z" />
      <ellipse
         style="fill:#ffffff;fill-opacity:1;stroke-width:0.529167"
         id="path939"
         cx="440.92813"
         cy="145.78542"
         rx="1.984375"
         ry="0.79374999"
         d="m 444.78516,152.93388 c -0.0658,0.23996 -1.04604,0.37414 -2.18335,0.30093 -1.13738,-0.0732 -2.01378,-0.32999 -1.9541,-0.581 0.0597,-0.25092 1.03332,-0.38872 2.18111,-0.30734 1.14787,0.0814 2.02211,0.34738 1.95634,0.58741 z" />
      <ellipse
         style="fill:#ffffff;fill-opacity:1;stroke-width:0.529167"
         id="path941"
         cx="468.3125"
         cy="157.29478"
         rx="0.26458332"
         ry="0.66145831"
         d="m 468.72985,157.84131 c -0.0848,0.0668 -0.27139,0.11493 -0.41735,0.11493 -0.14595,0 -0.19714,-0.0482 -0.1128,-0.11534 0.0843,-0.0671 0.2721,-0.1272 0.41895,-0.12697 0.14684,2.2e-4 0.19597,0.0606 0.1112,0.12738 z" />
      <ellipse
         style="fill:#ffffff;fill-opacity:1;stroke-width:0.529167"
         id="ellipse943"
         cx="463.81461"
         cy="148.43124"
         rx="11.377083"
         ry="7.1437497"
         d="m 477.71036,155.2051 c -0.52545,0.77769 -2.24384,1.37771 -4.74586,1.75294 -2.4429,0.36636 -5.64796,0.52494 -8.62618,0.50969 -3.0153,-0.0154 -5.81293,-0.20807 -7.6886,-0.66238 -1.88972,-0.45771 -2.78716,-1.17223 -2.42194,-2.03886 0.36174,-0.85838 1.94952,-1.76164 4.47621,-2.40869 2.54184,-0.65094 5.75014,-0.9711 8.97683,-0.87409 3.21667,0.0967 6.07477,0.59719 7.95755,1.32982 1.87883,0.7311 2.59601,1.61599 2.07199,2.39157 z" />
    </g>
    <path
       sodipodi:type="star"
       style="fill:#ff7d27;fill-opacity:1;stroke-width:0.529167"
       id="path989"
       sodipodi:sides="3"
       sodipodi:cx="432.06458"
       sodipodi:cy="32.279167"
       sodipodi:r1="15.164572"
       sodipodi:r2="7.5822859"
       sodipodi:arg1="-2.3191744"
       sodipodi:arg2="-1.2719768"
       inkscape:flatsided="false"
       inkscape:rounded="0"
       inkscape:randomized="0"
       d="m 421.74583,21.166668 12.55091,3.866225 12.55092,3.866224 -9.62371,8.9363 -9.62371,8.936299 -2.92721,-12.802524 z"
       inkscape:transform-center-x="-3.4320867"
       inkscape:transform-center-y="2.3885604"
       transform="matrix(1.5375604,0,0,1.4133299,-226.71385,-8.7488178)" />
    <path
       sodipodi:type="star"
       style="fill:#ff9955;fill-opacity:1;stroke-width:0.529167"
       id="path991"
       sodipodi:sides="3"
       sodipodi:cx="454.28955"
       sodipodi:cy="33.072918"
       sodipodi:r1="15.329859"
       sodipodi:r2="7.6649294"
       sodipodi:arg1="-1.9416876"
       sodipodi:arg2="-0.89449006"
       inkscape:flatsided="false"
       inkscape:rounded="0"
       inkscape:randomized="0"
       d="m 448.7333,18.785418 10.35386,8.309698 10.35385,8.309699 -12.37333,4.811853 -12.37334,4.811853 2.01948,-13.121551 z"
       inkscape:transform-center-x="-2.7781192"
       inkscape:transform-center-y="-1.1659486" />
    <path
       sodipodi:type="star"
       style="fill:#ff9955;fill-opacity:1;stroke-width:0.529167"
       id="path993"
       sodipodi:sides="3"
       sodipodi:cx="429.94791"
       sodipodi:cy="56.885414"
       sodipodi:r1="14.223661"
       sodipodi:r2="7.1118307"
       sodipodi:arg1="-2.9733859"
       sodipodi:arg2="-1.9261883"
       inkscape:flatsided="false"
       inkscape:rounded="0"
       inkscape:randomized="0"
       d="m 415.92499,54.504164 11.5483,-4.286164 11.5483,-4.286163 -2.06223,12.144202 -2.06222,12.144202 -9.48607,-7.858038 z"
       inkscape:transform-center-x="0.10570887"
       inkscape:transform-center-y="3.4639785"
       transform="rotate(19.510837,429.94791,56.885415)" />
    <path
       sodipodi:type="star"
       style="fill:#ff6d0c;fill-opacity:1;stroke-width:0.529167"
       id="path989-9"
       sodipodi:sides="3"
       sodipodi:cx="432.06458"
       sodipodi:cy="32.279167"
       sodipodi:r1="15.164572"
       sodipodi:r2="7.5822859"
       sodipodi:arg1="-2.3191744"
       sodipodi:arg2="-1.2719768"
       inkscape:flatsided="false"
       inkscape:rounded="0"
       inkscape:randomized="0"
       inkscape:transform-center-x="4.087736"
       inkscape:transform-center-y="-3.5717352"
       transform="matrix(1.0357742,-1.3181536,0.88317965,0.58116127,27.990998,664.12624)"
       d="m 421.74583,21.166668 12.55091,3.866225 12.55092,3.866224 -9.62371,8.9363 -9.62371,8.936299 -2.92721,-12.802524 z" />
    <path
       sodipodi:type="star"
       style="fill:#ff9955;fill-opacity:1;stroke-width:0.529167"
       id="path993-1"
       sodipodi:sides="3"
       sodipodi:cx="-514.59784"
       sodipodi:cy="-91.995537"
       sodipodi:r1="14.223661"
       sodipodi:r2="7.1118307"
       sodipodi:arg1="-2.9733859"
       sodipodi:arg2="-1.9261883"
       inkscape:flatsided="false"
       inkscape:rounded="0"
       inkscape:randomized="0"
       inkscape:transform-center-x="2.1962134"
       inkscape:transform-center-y="1.4802427"
       d="m -528.62076,-94.376787 11.5483,-4.286163 11.5483,-4.28616 -2.06222,12.144198 -2.06222,12.144202 -9.48608,-7.858038 z"
       transform="rotate(-117.62482,49.654975,-287.42113)" />
    <text
       xml:space="preserve"
       style="font-style:normal;font-variant:normal;font-weight:normal;font-stretch:normal;font-size:28.7745px;line-height:1.25;font-family:'Showcard Gothic';-inkscape-font-specification:'Showcard Gothic';text-align:center;text-anchor:middle;fill:#fff444;fill-opacity:1;stroke:none;stroke-width:0.719366"
       x="474.35577"
       y="85.856026"
       id="text1033"><tspan
         sodipodi:role="line"
         id="tspan1031"
         x="474.35577"
         y="85.856026"
         style="font-style:normal;font-variant:normal;font-weight:normal;font-stretch:normal;font-family:'Showcard Gothic';-inkscape-font-specification:'Showcard Gothic';text-align:center;text-anchor:middle;fill:#fff444;fill-opacity:1;stroke-width:0.719366">MISO</tspan></text>
    <text
       xml:space="preserve"
       style="font-style:normal;font-variant:normal;font-weight:normal;font-stretch:normal;font-size:10.7872px;line-height:1.25;font-family:'Showcard Gothic';-inkscape-font-specification:'Showcard Gothic';text-align:center;text-anchor:middle;fill:#000000;fill-opacity:1;stroke:none;stroke-width:0.269682"
       x="474.35577"
       y="153.33905"
       id="text1045"><tspan
         sodipodi:role="line"
         id="tspan1043"
         x="474.35577"
         y="153.33905"
         style="font-style:normal;font-variant:normal;font-weight:normal;font-stretch:normal;font-family:'Showcard Gothic';-inkscape-font-specification:'Showcard Gothic';text-align:center;text-anchor:middle;fill:#000000;fill-opacity:1;stroke-width:0.269682">Primordial Soup</tspan></text>
  </g>
</svg>
